<svg fill="none" height="16" viewBox="0 0 87 16" width="87" xmlns="http://www.w3.org/2000/svg"><g fill="#ff9100"><path d="m6.85717 1.73135c.37198-.72404 1.40699-.72404 1.77897 0l1.21092 2.35704c.14521.28263.41604.47943.72974.53019l2.6159.4233c.8035.13003 1.1234 1.11438.5497 1.69189l-1.8675 1.88003c-.2239.22543-.3274.54386-.2787.85786l.4058 2.61864c.1246.8044-.7127 1.4128-1.4392 1.0457l-2.36514-1.1952c-.28359-.1433-.61842-.1433-.90201 0l-2.36509 1.1952c-.72652.3671-1.56386-.2413-1.43922-1.0457l.40577-2.61864c.04866-.314-.05481-.63243-.27873-.85786l-1.86748-1.88003c-.57366-.57751-.25382-1.56186.54973-1.69189l2.61587-.4233c.31367-.05076.58454-.24756.72974-.53019z"/><path d="m24.7342 1.73135c.372-.72404 1.407-.72404 1.779 0l1.2109 2.35704c.1452.28263.4161.47943.7298.53019l2.6159.4233c.8035.13003 1.1233 1.11438.5497 1.69189l-1.8675 1.88003c-.2239.22543-.3274.54386-.2787.85786l.4057 2.61864c.1247.8044-.7127 1.4128-1.4392 1.0457l-2.3651-1.1952c-.2836-.1433-.6184-.1433-.902 0l-2.3651 1.1952c-.7265.3671-1.5638-.2413-1.4392-1.0457l.4058-2.61864c.0486-.314-.0548-.63243-.2787-.85786l-1.8675-1.88003c-.5737-.57751-.2538-1.56186.5497-1.69189l2.6159-.4233c.3136-.05076.5845-.24756.7297-.53019z"/><path d="m42.6112 1.73135c.372-.72404 1.407-.72404 1.779 0l1.2109 2.35704c.1452.28263.4161.47943.7297.53019l2.6159.4233c.8036.13003 1.1234 1.11438.5497 1.69189l-1.8674 1.88003c-.224.22543-.3274.54386-.2788.85786l.4058 2.61864c.1246.8044-.7127 1.4128-1.4392 1.0457l-2.3651-1.1952c-.2836-.1433-.6184-.1433-.902 0l-2.3651 1.1952c-.7265.3671-1.5639-.2413-1.4392-1.0457l.4057-2.61864c.0487-.314-.0548-.63243-.2787-.85786l-1.8675-1.88003c-.5736-.57751-.2538-1.56186.5498-1.69189l2.6158-.4233c.3137-.05076.5846-.24756.7298-.53019z"/><path d="m60.4872 1.73135c.372-.72404 1.407-.72404 1.7789 0l1.211 2.35704c.1452.28263.416.47943.7297.53019l2.6159.4233c.8035.13003 1.1234 1.11438.5497 1.69189l-1.8675 1.88003c-.2239.22543-.3274.54386-.2787.85786l.4058 2.61864c.1246.8044-.7127 1.4128-1.4392 1.0457l-2.3651-1.1952c-.2836-.1433-.6185-.1433-.902 0l-2.3651 1.1952c-.7266.3671-1.5639-.2413-1.4393-1.0457l.4058-2.61864c.0487-.314-.0548-.63243-.2787-.85786l-1.8675-1.88003c-.5737-.57751-.2538-1.56186.5497-1.69189l2.6159-.4233c.3137-.05076.5845-.24756.7297-.53019z"/><path d="m78.3639 1.73135c.372-.72404 1.407-.72404 1.7789 0l1.211 2.35704c.1452.28263.4161.47943.7297.53019l2.6159.4233c.8035.13003 1.1234 1.11438.5497 1.69189l-1.8675 1.88003c-.2239.22543-.3273.54386-.2787.85786l.4058 2.61864c.1246.8044-.7127 1.4128-1.4392 1.0457l-2.3651-1.1952c-.2836-.1433-.6184-.1433-.902 0l-2.3651 1.1952c-.7265.3671-1.5639-.2413-1.4392-1.0457l.4057-2.61864c.0487-.314-.0548-.63243-.2787-.85786l-1.8675-1.88003c-.5736-.57751-.2538-1.56186.5497-1.69189l2.6159-.4233c.3137-.05076.5846-.24756.7298-.53019z"/></g></svg>